<svg width="16" height="16" viewBox="0 0 16 16" fill="none" xmlns="http://www.w3.org/2000/svg">
<path d="M8 0.5C4.55 0.5 1.75 3.3 1.75 6.75C1.75 10.2 4.55 13 8 13C11.45 13 14.25 10.2 14.25 6.75C14.25 3.3 11.45 0.5 8 0.5ZM8 11.75C5.25 11.75 3 9.5 3 6.75C3 4 5.25 1.75 8 1.75C10.75 1.75 13 4 13 6.75C13 9.5 10.75 11.75 8 11.75Z" fill="white"/>
<path d="M6.34961 4.825C6.57461 4.575 6.84961 4.375 7.17461 4.25C7.49961 4.1 7.82461 4.025 8.17461 4.025C8.59961 4.025 9.02461 4.125 9.37461 4.35C9.72461 4.55 10.0496 4.85 10.2746 5.175L11.1746 4.5C10.8246 4.05 10.3996 3.65 9.89961 3.4C9.37461 3.125 8.82461 3 8.19961 3C7.69961 3 7.19961 3.1 6.74961 3.3C6.29961 3.5 5.89961 3.775 5.57461 4.1C5.24961 4.45 4.97461 4.825 4.77461 5.3C4.57461 5.75 4.47461 6.25 4.47461 6.75C4.47461 7.275 4.57461 7.75 4.77461 8.2C4.97461 8.65 5.22461 9.05 5.57461 9.4C5.89961 9.75 6.29961 10 6.74961 10.2C7.19961 10.4 7.67461 10.5 8.19961 10.5C8.82461 10.5 9.39961 10.375 9.89961 10.1C10.3996 9.825 10.8496 9.45 11.1746 9L10.2746 8.325C10.0496 8.675 9.74961 8.95 9.37461 9.15C8.99961 9.35 8.59961 9.45 8.17461 9.45C7.82461 9.45 7.49961 9.375 7.17461 9.225C6.87461 9.075 6.59961 8.875 6.34961 8.65C6.12461 8.4 5.92461 8.125 5.79961 7.8C5.67461 7.475 5.59961 7.125 5.59961 6.75C5.59961 6.375 5.67461 6.025 5.79961 5.7C5.92461 5.375 6.12461 5.075 6.34961 4.825Z" fill="white"/>
</svg>
