<svg width="81" height="80" viewBox="0 0 81 80" fill="none" xmlns="http://www.w3.org/2000/svg">
<path d="M42.9809 8.84818C42.2753 8.29213 41.4032 7.98975 40.5049 7.98975C39.6066 7.98975 38.7344 8.29213 38.0289 8.84818L24.7969 19.2882C21.5769 21.8282 21.9689 26.2602 24.5649 28.5442L18.7089 33.3682C14.8569 36.5482 16.4169 42.4562 20.7489 43.7482L14.4049 49.6922C10.4609 53.3842 13.0769 60.0002 18.4809 60.0002H32.5009V67.0002C32.5009 69.7602 34.7409 72.0002 37.5009 72.0002H43.5009C46.2609 72.0002 48.5009 69.7602 48.5009 67.0002V60.0002H62.5169C67.9209 60.0002 70.5369 53.3802 66.5889 49.6882L60.2409 43.7522C64.5849 42.4682 66.1529 36.5522 62.2929 33.3722L56.4449 28.5482C59.0409 26.2642 59.4329 21.8282 56.2169 19.2882L42.9809 8.84818ZM44.5009 60.0002V67.0002C44.5009 67.2654 44.3955 67.5198 44.208 67.7073C44.0204 67.8948 43.7661 68.0002 43.5009 68.0002H37.5009C37.2356 68.0002 36.9813 67.8948 36.7938 67.7073C36.6062 67.5198 36.5009 67.2654 36.5009 67.0002V60.0002H44.5009ZM40.5049 11.9882L53.7369 22.4282C54.0594 22.6813 54.2963 23.0274 54.4155 23.4197C54.5348 23.8119 54.5306 24.2313 54.4036 24.6211C54.2766 25.0109 54.0328 25.3522 53.7054 25.5989C53.3779 25.8456 52.9826 25.9857 52.5729 26.0002C52.1668 26.013 51.7743 26.1491 51.4475 26.3905C51.1207 26.6318 50.8752 26.967 50.7436 27.3514C50.612 27.7357 50.6006 28.151 50.7108 28.542C50.8211 28.9331 51.0478 29.2812 51.3609 29.5402L59.7489 36.4602C60.0654 36.7225 60.2935 37.076 60.4019 37.4726C60.5104 37.8692 60.494 38.2896 60.355 38.6765C60.2159 39.0634 59.961 39.3981 59.625 39.635C59.2889 39.8718 58.888 39.9993 58.4769 40.0002H55.4449C55.0436 40 54.6515 40.1204 54.3197 40.346C53.9878 40.5715 53.7314 40.8917 53.5839 41.2648C53.4363 41.638 53.4044 42.0469 53.4924 42.4384C53.5803 42.8299 53.7839 43.1859 54.0769 43.4602L63.8529 52.6082C64.1401 52.8766 64.3399 53.2252 64.4265 53.6086C64.513 53.9921 64.4823 54.3927 64.3382 54.7585C64.1942 55.1242 63.9435 55.4382 63.6187 55.6596C63.2939 55.8811 62.91 55.9997 62.5169 56.0002H18.4809C18.0874 56.0005 17.703 55.8825 17.3776 55.6613C17.0521 55.4402 16.8008 55.1262 16.6562 54.7603C16.5117 54.3944 16.4806 53.9934 16.567 53.6096C16.6535 53.2258 16.8534 52.8768 17.1409 52.6082L26.9009 43.4602C27.1933 43.1864 27.3968 42.8311 27.4849 42.4404C27.5731 42.0496 27.5419 41.6414 27.3954 41.2685C27.2488 40.8957 26.9937 40.5755 26.663 40.3493C26.3324 40.1232 25.9415 40.0016 25.5409 40.0002H22.5249C22.1128 40.0003 21.7107 39.8732 21.3736 39.6361C21.0365 39.3991 20.7809 39.0637 20.6417 38.6758C20.5025 38.2879 20.4865 37.8665 20.5959 37.4692C20.7053 37.0719 20.9347 36.7181 21.2529 36.4562L29.6449 29.5402C29.9577 29.2814 30.1843 28.9336 30.2947 28.543C30.4051 28.1523 30.3941 27.7373 30.2629 27.3532C30.1318 26.969 29.8869 26.6338 29.5608 26.3921C29.2346 26.1504 28.8426 26.0137 28.4369 26.0002C28.0272 25.9857 27.6318 25.8456 27.3044 25.5989C26.9769 25.3522 26.7332 25.0109 26.6061 24.6211C26.4791 24.2313 26.475 23.8119 26.5942 23.4197C26.7135 23.0274 26.9504 22.6813 27.2729 22.4282L40.5049 11.9882Z" fill="#0E204E"/>
</svg>
