<svg width="81" height="80" viewBox="0 0 81 80" fill="none" xmlns="http://www.w3.org/2000/svg">
<path d="M63.834 46.6668V20.0002C63.834 16.3335 60.834 13.3335 57.1673 13.3335H10.5007C6.83398 13.3335 3.83398 16.3335 3.83398 20.0002V46.6668C3.83398 50.3335 6.83398 53.3335 10.5007 53.3335H57.1673C60.834 53.3335 63.834 50.3335 63.834 46.6668ZM57.1673 46.6668H10.5007V20.0002H57.1673V46.6668ZM33.834 23.3335C28.3006 23.3335 23.834 27.8002 23.834 33.3335C23.834 38.8668 28.3006 43.3335 33.834 43.3335C39.3673 43.3335 43.834 38.8668 43.834 33.3335C43.834 27.8002 39.3673 23.3335 33.834 23.3335ZM77.1673 23.3335V60.0002C77.1673 63.6668 74.1673 66.6668 70.5006 66.6668H13.834V60.0002H70.5006V23.3335H77.1673Z" fill="#0E204E"/>
</svg>
