<svg width="80" height="80" viewBox="0 0 80 80" fill="none" xmlns="http://www.w3.org/2000/svg">
<path d="M53.7501 6.25V9.765C51.7005 10.117 49.754 10.9178 48.0501 12.11L45.4701 9.685L42.0326 13.36L44.5326 15.7025C43.3889 17.3692 42.6157 19.2617 42.2651 21.2525H38.7501V26.2525H42.2651C42.6301 28.3275 43.4501 30.2175 44.6101 31.8775L41.9526 34.4525L45.5526 38.0525L48.1276 35.3925C49.7876 36.5525 51.6776 37.3725 53.7526 37.7375V41.25H58.7526V37.735C60.7432 37.3852 62.6357 36.6129 64.3026 35.47L66.6426 37.97L70.3176 34.53L67.8926 31.955C69.0676 30.28 69.8676 28.3425 70.2376 26.25H73.7501V21.25H70.2351C69.8752 19.2258 69.0747 17.3054 67.8901 15.625L70.2351 13.28L66.7176 9.765L64.3751 12.11C62.6947 10.9254 60.7743 10.1248 58.7501 9.765V6.25H53.7501ZM56.2501 14.5325C57.4629 14.5245 58.6652 14.7575 59.7872 15.2179C60.9093 15.6782 61.9288 16.3568 62.7865 17.2143C63.6442 18.0718 64.3231 19.0911 64.7838 20.213C65.2444 21.3349 65.4777 22.5372 65.4701 23.75C65.4701 28.8875 61.3876 32.97 56.2501 32.97C51.1126 32.97 47.0301 28.8875 47.0301 23.75C47.0301 18.6125 51.1126 14.53 56.2501 14.53V14.5325ZM23.8251 29.295L19.2201 31.17L21.0151 35.695C18.6256 37.1249 16.6156 39.1092 15.1551 41.48L10.7051 39.68L8.83008 44.2925L13.2801 46.0875C12.9289 47.4398 12.7458 48.8303 12.7351 50.2275C12.7351 51.6525 12.9476 53.0425 13.2801 54.3675L8.83008 56.1675L10.7051 60.775L15.1551 58.975C16.6023 61.3768 18.6138 63.3892 21.0151 64.8375L19.2151 69.2875L23.8276 71.1625L25.6276 66.7125C26.9797 67.0646 28.3704 67.2477 29.7676 67.2575C31.1926 67.2575 32.5876 67.045 33.9076 66.7125L35.7076 71.1625L40.3151 69.2875L38.5151 64.8375C40.8876 63.379 42.8723 61.3686 44.3001 58.9775L48.8251 60.7725L50.7001 56.165L46.1751 54.365C46.5001 53.04 46.7201 51.6475 46.7201 50.225C46.7201 48.8 46.5026 47.405 46.1701 46.0825L50.7026 44.2875L48.8276 39.675L44.3026 41.475C42.8666 39.1102 40.8823 37.126 38.5176 35.69L40.3176 31.165L35.7051 29.29L33.9126 33.815C32.559 33.466 31.1679 33.2838 29.7701 33.2725C28.3451 33.2725 26.9551 33.4875 25.6301 33.8175L23.8301 29.2925L23.8251 29.295ZM29.7651 38.275C36.4226 38.275 41.7151 43.575 41.7151 50.23C41.7201 56.8875 36.4226 62.26 29.7651 62.26C28.1847 62.262 26.6195 61.9522 25.1591 61.3483C23.6986 60.7444 22.3717 59.8584 21.2542 58.7409C20.1367 57.6234 19.2507 56.2965 18.6468 54.836C18.0429 53.3756 17.7331 51.8104 17.7351 50.23C17.7351 43.5725 23.1101 38.275 29.7651 38.275Z" fill="#0E204E"/>
</svg>
