<svg width="32" height="32" viewBox="0 0 32 32" fill="none" xmlns="http://www.w3.org/2000/svg">
<path d="M25.334 18.6668V8.00016C25.334 6.5335 24.134 5.3335 22.6673 5.3335H4.00065C2.53398 5.3335 1.33398 6.5335 1.33398 8.00016V18.6668C1.33398 20.1335 2.53398 21.3335 4.00065 21.3335H22.6673C24.134 21.3335 25.334 20.1335 25.334 18.6668ZM22.6673 18.6668H4.00065V8.00016H22.6673V18.6668ZM13.334 9.3335C11.1207 9.3335 9.33399 11.1202 9.33399 13.3335C9.33399 15.5468 11.1207 17.3335 13.334 17.3335C15.5473 17.3335 17.334 15.5468 17.334 13.3335C17.334 11.1202 15.5473 9.3335 13.334 9.3335ZM30.6673 9.3335V24.0002C30.6673 25.4668 29.4673 26.6668 28.0007 26.6668H5.33398V24.0002H28.0007V9.3335H30.6673Z" fill="white"/>
</svg>
