<svg width="32" height="32" viewBox="0 0 32 32" fill="none" xmlns="http://www.w3.org/2000/svg">
<path d="M21.4992 2.5V3.906C20.6794 4.04679 19.9008 4.3671 19.2192 4.844L18.1872 3.874L16.8122 5.344L17.8122 6.281C17.3548 6.94769 17.0455 7.70469 16.9052 8.501H15.4992V10.501H16.9052C17.0512 11.331 17.3792 12.087 17.8432 12.751L16.7802 13.781L18.2203 15.221L19.2502 14.157C19.9142 14.621 20.6702 14.949 21.5002 15.095V16.5H23.5002V15.094C24.2965 14.9541 25.0535 14.6452 25.7202 14.188L26.6562 15.188L28.1262 13.812L27.1562 12.782C27.6262 12.112 27.9462 11.337 28.0942 10.5H29.4992V8.5H28.0932C27.9493 7.6903 27.6291 6.92217 27.1552 6.25L28.0932 5.312L26.6862 3.906L25.7492 4.844C25.0771 4.37017 24.3089 4.04994 23.4992 3.906V2.5H21.4992ZM22.4992 5.813C22.9844 5.80981 23.4653 5.903 23.9141 6.08714C24.3629 6.27129 24.7707 6.54274 25.1138 6.88573C25.4569 7.22872 25.7285 7.63643 25.9127 8.08521C26.097 8.53398 26.1903 9.01488 26.1872 9.5C26.1872 11.555 24.5542 13.188 22.4992 13.188C20.4443 13.188 18.8112 11.555 18.8112 9.5C18.8112 7.445 20.4443 5.812 22.4992 5.812V5.813ZM9.52925 11.718L7.68725 12.468L8.40525 14.278C7.44947 14.85 6.64548 15.6437 6.06125 16.592L4.28125 15.872L3.53125 17.717L5.31125 18.435C5.17077 18.9759 5.09755 19.5321 5.09325 20.091C5.09325 20.661 5.17825 21.217 5.31125 21.747L3.53125 22.467L4.28125 24.31L6.06125 23.59C6.64015 24.5507 7.44476 25.3557 8.40525 25.935L7.68525 27.715L9.53025 28.465L10.2502 26.685C10.7911 26.8258 11.3474 26.8991 11.9062 26.903C12.4762 26.903 13.0342 26.818 13.5622 26.685L14.2822 28.465L16.1252 27.715L15.4052 25.935C16.3542 25.3516 17.1481 24.5474 17.7192 23.591L19.5293 24.309L20.2792 22.466L18.4692 21.746C18.5992 21.216 18.6872 20.659 18.6872 20.09C18.6872 19.52 18.6003 18.962 18.4672 18.433L20.2802 17.715L19.5302 15.87L17.7203 16.59C17.1459 15.6441 16.3522 14.8504 15.4062 14.276L16.1263 12.466L14.2812 11.716L13.5642 13.526C13.0228 13.3864 12.4664 13.3135 11.9072 13.309C11.3372 13.309 10.7812 13.395 10.2512 13.527L9.53125 11.717L9.52925 11.718ZM11.9052 15.31C14.5682 15.31 16.6853 17.43 16.6853 20.092C16.6873 22.755 14.5682 24.904 11.9052 24.904C11.2731 24.9048 10.647 24.7809 10.0628 24.5393C9.47867 24.2978 8.94788 23.9434 8.50089 23.4964C8.0539 23.0494 7.69948 22.5186 7.45793 21.9344C7.21639 21.3502 7.09246 20.7241 7.09325 20.092C7.09325 17.429 9.24325 15.31 11.9052 15.31Z" fill="white"/>
</svg>
