<svg width="32" height="32" viewBox="0 0 32 32" fill="none" xmlns="http://www.w3.org/2000/svg">
<path d="M16.0008 27.1998C17.7681 27.1998 19.2008 25.7671 19.2008 23.9998C19.2008 22.2325 17.7681 20.7998 16.0008 20.7998C14.2335 20.7998 12.8008 22.2325 12.8008 23.9998C12.8008 25.7671 14.2335 27.1998 16.0008 27.1998Z" fill="white"/>
<path d="M1.59961 11.8399C3.40137 9.62669 5.61724 7.8541 8.1 6.63994C10.5828 5.42579 13.2756 4.79785 15.9996 4.79785C18.7236 4.79785 21.4164 5.42579 23.8992 6.63994C26.382 7.8541 28.5978 9.62669 30.3996 11.8399L27.9996 14.0799C26.4981 12.1902 24.6516 10.6766 22.5826 9.63995C20.5136 8.60324 18.2696 8.06708 15.9996 8.06708C13.7296 8.06708 11.4856 8.60324 9.4166 9.63995C7.34763 10.6766 5.50108 12.1902 3.99961 14.0799L1.59961 11.8399ZM7.51961 16.9599C8.57096 15.6605 9.88165 14.6161 11.3602 13.8997C12.8387 13.1833 14.4493 12.8121 16.0796 12.8121C17.7099 12.8121 19.3206 13.1833 20.7991 13.8997C22.2776 14.6161 23.5883 15.6605 24.6396 16.9599L22.3996 19.1999C21.65 18.2095 20.7001 17.4102 19.6201 16.861C18.5401 16.3117 17.3575 16.0266 16.1596 16.0266C14.9617 16.0266 13.7791 16.3117 12.6991 16.861C11.6191 17.4102 10.6692 18.2095 9.91961 19.1999L7.51961 16.9599Z" fill="white"/>
</svg>
