<svg width="81" height="80" viewBox="0 0 81 80" fill="none" xmlns="http://www.w3.org/2000/svg">
<path d="M40.5 68C44.9183 68 48.5 64.4183 48.5 60C48.5 55.5817 44.9183 52 40.5 52C36.0817 52 32.5 55.5817 32.5 60C32.5 64.4183 36.0817 68 40.5 68Z" fill="#0E204E"/>
<path d="M4.5 29.5999C9.00441 24.0667 14.5441 19.6353 20.751 16.5999C26.9579 13.5645 33.69 11.9946 40.5 11.9946C47.31 11.9946 54.0421 13.5645 60.249 16.5999C66.4559 19.6353 71.9956 24.0667 76.5 29.5999L70.5 35.1999C66.7463 30.4754 62.1299 26.6916 56.9575 24.0999C51.7851 21.5081 46.175 20.1677 40.5 20.1677C34.825 20.1677 29.2149 21.5081 24.0425 24.0999C18.8701 26.6916 14.2537 30.4754 10.5 35.1999L4.5 29.5999ZM19.3 42.3999C21.9284 39.1513 25.2051 36.5403 28.9014 34.7493C32.5976 32.9582 36.6242 32.0303 40.7 32.0303C44.7758 32.0303 48.8024 32.9582 52.4986 34.7493C56.1949 36.5403 59.4716 39.1513 62.1 42.3999L56.5 47.9999C54.626 45.5238 52.2513 43.5255 49.5512 42.1524C46.8512 40.7793 43.8947 40.0664 40.9 40.0664C37.9053 40.0664 34.9488 40.7793 32.2488 42.1524C29.5487 43.5255 27.174 45.5238 25.3 47.9999L19.3 42.3999Z" fill="#0E204E"/>
</svg>
