<svg width="92" height="44" viewBox="0 0 92 44" fill="none" xmlns="http://www.w3.org/2000/svg">
<rect width="92" height="44" fill="#1E1E1E"/>
<rect width="375" height="4994" transform="translate(-20 -56)" fill="white"/>
<path d="M0.68 1.84C1.01333 1.85333 1.46 1.86667 2.02 1.88C2.59333 1.89333 3.16 1.9 3.72 1.9C4.36 1.9 4.98 1.89333 5.58 1.88C6.18 1.86667 6.60667 1.86 6.86 1.86C8.71333 1.86 10.1 2.22667 11.02 2.96C11.94 3.69333 12.4 4.64 12.4 5.8C12.4 6.28 12.3067 6.78667 12.12 7.32C11.9333 7.84 11.6133 8.32667 11.16 8.78C10.72 9.22 10.1133 9.58 9.34 9.86C8.56667 10.14 7.59333 10.28 6.42 10.28H4.38V9.88H6.22C7.00667 9.88 7.6 9.7 8 9.34C8.41333 8.98 8.69333 8.50667 8.84 7.92C9 7.33333 9.08 6.7 9.08 6.02C9.08 4.75333 8.89333 3.80667 8.52 3.18C8.14667 2.55333 7.50667 2.24 6.6 2.24C6.08 2.24 5.74 2.35333 5.58 2.58C5.43333 2.80667 5.36 3.26667 5.36 3.96V13.76C5.36 14.28 5.41333 14.6667 5.52 14.92C5.62667 15.1733 5.83333 15.34 6.14 15.42C6.44667 15.5 6.9 15.5467 7.5 15.56V16C7.08667 15.9867 6.55333 15.9733 5.9 15.96C5.24667 15.9467 4.56 15.94 3.84 15.94C3.26667 15.94 2.70667 15.9467 2.16 15.96C1.61333 15.9733 1.12 15.9867 0.68 16V15.6C1.10667 15.5733 1.42667 15.52 1.64 15.44C1.85333 15.36 1.99333 15.2 2.06 14.96C2.14 14.72 2.18 14.36 2.18 13.88V3.96C2.18 3.46667 2.14 3.10667 2.06 2.88C1.99333 2.64 1.84667 2.48 1.62 2.4C1.40667 2.30667 1.09333 2.25333 0.68 2.24V1.84ZM15.8925 0.499999C16.4525 0.499999 16.8925 0.639999 17.2125 0.92C17.5458 1.18667 17.7125 1.56 17.7125 2.04C17.7125 2.52 17.5458 2.9 17.2125 3.18C16.8925 3.44667 16.4525 3.58 15.8925 3.58C15.3325 3.58 14.8858 3.44667 14.5525 3.18C14.2325 2.9 14.0725 2.52 14.0725 2.04C14.0725 1.56 14.2325 1.18667 14.5525 0.92C14.8858 0.639999 15.3325 0.499999 15.8925 0.499999ZM17.4525 5.44V14.14C17.4525 14.7 17.5458 15.08 17.7325 15.28C17.9325 15.48 18.2658 15.58 18.7325 15.58V16C18.4925 15.9867 18.1192 15.9733 17.6125 15.96C17.1058 15.9333 16.5925 15.92 16.0725 15.92C15.5525 15.92 15.0258 15.9333 14.4925 15.96C13.9592 15.9733 13.5592 15.9867 13.2925 16V15.58C13.7592 15.58 14.0858 15.48 14.2725 15.28C14.4725 15.08 14.5725 14.7 14.5725 14.14V7.84C14.5725 7.24 14.4792 6.8 14.2925 6.52C14.1192 6.22667 13.7858 6.08 13.2925 6.08V5.66C13.7192 5.7 14.1325 5.72 14.5325 5.72C15.0925 5.72 15.6125 5.7 16.0925 5.66C16.5858 5.60667 17.0392 5.53333 17.4525 5.44ZM27.0411 5.38C27.6011 5.38 28.0544 5.45333 28.4011 5.6C28.7611 5.73333 29.0411 5.92 29.2411 6.16C29.4544 6.41333 29.6078 6.74 29.7011 7.14C29.8078 7.54 29.8611 8.08 29.8611 8.76V14.14C29.8611 14.7 29.9544 15.08 30.1411 15.28C30.3411 15.48 30.6744 15.58 31.1411 15.58V16C30.8878 15.9867 30.5078 15.9733 30.0011 15.96C29.4944 15.9333 28.9944 15.92 28.5011 15.92C27.9944 15.92 27.4944 15.9333 27.0011 15.96C26.5211 15.9733 26.1544 15.9867 25.9011 16V15.58C26.3011 15.58 26.5811 15.48 26.7411 15.28C26.9011 15.08 26.9811 14.7 26.9811 14.14V7.92C26.9811 7.58667 26.9478 7.3 26.8811 7.06C26.8144 6.80667 26.6944 6.61333 26.5211 6.48C26.3478 6.33333 26.0878 6.26 25.7411 6.26C25.3811 6.26 25.0478 6.36 24.7411 6.56C24.4478 6.76 24.2078 7.04 24.0211 7.4C23.8478 7.74667 23.7611 8.14 23.7611 8.58V14.14C23.7611 14.7 23.8411 15.08 24.0011 15.28C24.1744 15.48 24.4544 15.58 24.8411 15.58V16C24.6011 15.9867 24.2478 15.9733 23.7811 15.96C23.3278 15.9333 22.8544 15.92 22.3611 15.92C21.8544 15.92 21.3344 15.9333 20.8011 15.96C20.2678 15.9733 19.8678 15.9867 19.6011 16V15.58C20.0678 15.58 20.3944 15.48 20.5811 15.28C20.7811 15.08 20.8811 14.7 20.8811 14.14V7.84C20.8811 7.24 20.7878 6.8 20.6011 6.52C20.4278 6.22667 20.0944 6.08 19.6011 6.08V5.66C20.0278 5.7 20.4411 5.72 20.8411 5.72C21.4011 5.72 21.9211 5.7 22.4011 5.66C22.8944 5.60667 23.3478 5.53333 23.7611 5.44V7.24C24.0944 6.56 24.5478 6.08 25.1211 5.8C25.6944 5.52 26.3344 5.38 27.0411 5.38ZM37.0463 5.38C38.2196 5.38 39.1396 5.72667 39.8063 6.42C40.4729 7.11333 40.8063 8.24667 40.8063 9.82H34.2263L34.1863 9.44H38.2863C38.2996 8.78667 38.2596 8.18667 38.1663 7.64C38.0729 7.08 37.9263 6.63333 37.7263 6.3C37.5263 5.96667 37.2596 5.8 36.9263 5.8C36.4596 5.8 36.0596 6.09333 35.7263 6.68C35.4063 7.26667 35.2129 8.24 35.1463 9.6L35.2063 9.72C35.1929 9.88 35.1796 10.0467 35.1663 10.22C35.1663 10.3933 35.1663 10.5733 35.1663 10.76C35.1663 11.68 35.2929 12.4267 35.5463 13C35.8129 13.5733 36.1463 13.9933 36.5462 14.26C36.9463 14.5133 37.3529 14.64 37.7663 14.64C38.0463 14.64 38.3329 14.6 38.6263 14.52C38.9329 14.4267 39.2396 14.2667 39.5463 14.04C39.8529 13.8 40.1396 13.4667 40.4063 13.04L40.7663 13.16C40.6063 13.6667 40.3529 14.16 40.0063 14.64C39.6596 15.12 39.2196 15.5133 38.6863 15.82C38.1529 16.1267 37.5129 16.28 36.7663 16.28C35.8596 16.28 35.0596 16.0867 34.3663 15.7C33.6729 15.3133 33.1263 14.7267 32.7262 13.94C32.3396 13.1533 32.1463 12.1533 32.1463 10.94C32.1463 9.7 32.3529 8.66667 32.7663 7.84C33.1929 7.01333 33.7729 6.4 34.5063 6C35.2529 5.58667 36.0996 5.38 37.0463 5.38ZM44.7244 16.14C44.1244 16.14 43.6244 16.0267 43.2244 15.8C42.8244 15.5733 42.531 15.2733 42.3444 14.9C42.1577 14.5133 42.0644 14.0933 42.0644 13.64C42.0644 13.0667 42.191 12.6 42.4444 12.24C42.711 11.88 43.051 11.5867 43.4644 11.36C43.8777 11.1333 44.311 10.9467 44.7644 10.8C45.231 10.6533 45.671 10.5133 46.0844 10.38C46.511 10.2333 46.851 10.0667 47.1044 9.88C47.371 9.68 47.5044 9.42667 47.5044 9.12V7.56C47.5044 7.21333 47.4444 6.90667 47.3244 6.64C47.2177 6.36 47.0444 6.14667 46.8044 6C46.5777 5.85333 46.2777 5.78 45.9044 5.78C45.6377 5.78 45.371 5.82 45.1044 5.9C44.8377 5.96667 44.6177 6.08667 44.4444 6.26C44.8177 6.39333 45.1044 6.6 45.3044 6.88C45.5177 7.14667 45.6244 7.45333 45.6244 7.8C45.6244 8.25333 45.4644 8.61333 45.1444 8.88C44.8377 9.14667 44.471 9.28 44.0444 9.28C43.5644 9.28 43.1977 9.13333 42.9444 8.84C42.7044 8.53333 42.5844 8.16667 42.5844 7.74C42.5844 7.35333 42.6777 7.03333 42.8644 6.78C43.0644 6.52667 43.3377 6.28667 43.6844 6.06C44.0577 5.84667 44.5044 5.68 45.0244 5.56C45.5577 5.44 46.131 5.38 46.7444 5.38C47.3577 5.38 47.911 5.44667 48.4044 5.58C48.8977 5.7 49.311 5.92667 49.6444 6.26C49.951 6.56667 50.151 6.94667 50.2444 7.4C50.3377 7.84 50.3844 8.4 50.3844 9.08V14.52C50.3844 14.8533 50.4177 15.0867 50.4844 15.22C50.551 15.34 50.6644 15.4 50.8244 15.4C50.9444 15.4 51.0577 15.3667 51.1644 15.3C51.2844 15.2333 51.411 15.1533 51.5444 15.06L51.7444 15.4C51.4644 15.64 51.1377 15.8267 50.7644 15.96C50.4044 16.08 49.9977 16.14 49.5444 16.14C49.051 16.14 48.6577 16.0733 48.3644 15.94C48.071 15.7933 47.8577 15.6 47.7244 15.36C47.6044 15.12 47.5444 14.84 47.5444 14.52C47.2244 15.0267 46.8377 15.4267 46.3844 15.72C45.931 16 45.3777 16.14 44.7244 16.14ZM46.1444 14.86C46.411 14.86 46.651 14.8 46.8644 14.68C47.091 14.5467 47.3044 14.3333 47.5044 14.04V9.94C47.3844 10.14 47.2177 10.32 47.0044 10.48C46.791 10.64 46.5644 10.8067 46.3244 10.98C46.0844 11.14 45.851 11.32 45.6244 11.52C45.411 11.72 45.2377 11.9667 45.1044 12.26C44.971 12.5533 44.9044 12.9067 44.9044 13.32C44.9044 13.84 45.0177 14.2267 45.2444 14.48C45.471 14.7333 45.771 14.86 46.1444 14.86ZM56.3959 5.44V17.64C56.3959 18.2667 56.5559 18.68 56.8759 18.88C57.1959 19.0933 57.6359 19.2 58.1959 19.2V19.62C57.8493 19.6067 57.3693 19.5867 56.7559 19.56C56.1559 19.5467 55.5159 19.54 54.8359 19.54C54.3426 19.54 53.8559 19.5467 53.3759 19.56C52.9093 19.5867 52.5559 19.6067 52.3159 19.62V19.2C52.7559 19.2 53.0626 19.1067 53.2359 18.92C53.4226 18.7333 53.5159 18.3733 53.5159 17.84V7.84C53.5159 7.24 53.4226 6.8 53.2359 6.52C53.0493 6.22667 52.7159 6.08 52.2359 6.08V5.66C52.6626 5.7 53.0759 5.72 53.4759 5.72C54.0226 5.72 54.5426 5.7 55.0359 5.66C55.5293 5.60667 55.9826 5.53333 56.3959 5.44ZM59.4959 5.38C60.1759 5.38 60.7826 5.56667 61.3159 5.94C61.8493 6.3 62.2759 6.85333 62.5959 7.6C62.9159 8.33333 63.0759 9.25333 63.0759 10.36C63.0759 11.3333 62.9626 12.1867 62.7359 12.92C62.5226 13.6533 62.2093 14.2733 61.7959 14.78C61.3959 15.2733 60.9093 15.6467 60.3359 15.9C59.7759 16.1533 59.1426 16.28 58.4359 16.28C57.9159 16.28 57.4426 16.1867 57.0159 16C56.5893 15.8267 56.2626 15.5733 56.0359 15.24L56.2359 14.98C56.3693 15.22 56.5559 15.4067 56.7959 15.54C57.0493 15.6733 57.3359 15.74 57.6559 15.74C58.2559 15.74 58.7293 15.54 59.0759 15.14C59.4226 14.7267 59.6693 14.1533 59.8159 13.42C59.9759 12.6733 60.0559 11.7867 60.0559 10.76C60.0559 9.61333 59.9826 8.71333 59.8359 8.06C59.6893 7.40667 59.4893 6.94 59.2359 6.66C58.9826 6.38 58.6759 6.24 58.3159 6.24C57.8359 6.24 57.3959 6.42667 56.9959 6.8C56.6093 7.17333 56.3893 7.70667 56.3359 8.4L56.2359 7.7C56.4759 6.94 56.8826 6.36667 57.4559 5.98C58.0426 5.58 58.7226 5.38 59.4959 5.38ZM68.3881 5.44V17.64C68.3881 18.2667 68.5481 18.68 68.8681 18.88C69.1881 19.0933 69.6281 19.2 70.1881 19.2V19.62C69.8415 19.6067 69.3615 19.5867 68.7481 19.56C68.1481 19.5467 67.5081 19.54 66.8281 19.54C66.3348 19.54 65.8481 19.5467 65.3681 19.56C64.9015 19.5867 64.5481 19.6067 64.3081 19.62V19.2C64.7481 19.2 65.0548 19.1067 65.2281 18.92C65.4148 18.7333 65.5081 18.3733 65.5081 17.84V7.84C65.5081 7.24 65.4148 6.8 65.2281 6.52C65.0415 6.22667 64.7081 6.08 64.2281 6.08V5.66C64.6548 5.7 65.0681 5.72 65.4681 5.72C66.0148 5.72 66.5348 5.7 67.0281 5.66C67.5215 5.60667 67.9748 5.53333 68.3881 5.44ZM71.4881 5.38C72.1681 5.38 72.7748 5.56667 73.3081 5.94C73.8415 6.3 74.2681 6.85333 74.5881 7.6C74.9081 8.33333 75.0681 9.25333 75.0681 10.36C75.0681 11.3333 74.9548 12.1867 74.7281 12.92C74.5148 13.6533 74.2015 14.2733 73.7881 14.78C73.3881 15.2733 72.9015 15.6467 72.3281 15.9C71.7681 16.1533 71.1348 16.28 70.4281 16.28C69.9081 16.28 69.4348 16.1867 69.0081 16C68.5815 15.8267 68.2548 15.5733 68.0281 15.24L68.2281 14.98C68.3615 15.22 68.5481 15.4067 68.7881 15.54C69.0415 15.6733 69.3281 15.74 69.6481 15.74C70.2481 15.74 70.7215 15.54 71.0681 15.14C71.4148 14.7267 71.6615 14.1533 71.8081 13.42C71.9681 12.6733 72.0481 11.7867 72.0481 10.76C72.0481 9.61333 71.9748 8.71333 71.8281 8.06C71.6815 7.40667 71.4815 6.94 71.2281 6.66C70.9748 6.38 70.6681 6.24 70.3081 6.24C69.8281 6.24 69.3881 6.42667 68.9881 6.8C68.6015 7.17333 68.3815 7.70667 68.3281 8.4L68.2281 7.7C68.4681 6.94 68.8748 6.36667 69.4481 5.98C70.0348 5.58 70.7148 5.38 71.4881 5.38ZM80.3803 0.339999V14.14C80.3803 14.7 80.4736 15.08 80.6603 15.28C80.8603 15.48 81.1936 15.58 81.6603 15.58V16C81.407 15.9867 81.027 15.9733 80.5203 15.96C80.0136 15.9333 79.5003 15.92 78.9803 15.92C78.4603 15.92 77.9336 15.9333 77.4003 15.96C76.8803 15.9733 76.487 15.9867 76.2203 16V15.58C76.687 15.58 77.0136 15.48 77.2003 15.28C77.4003 15.08 77.5003 14.7 77.5003 14.14V2.74C77.5003 2.14 77.407 1.7 77.2203 1.42C77.047 1.12667 76.7136 0.979999 76.2203 0.979999V0.56C76.647 0.599999 77.0603 0.619999 77.4603 0.619999C78.007 0.619999 78.527 0.599999 79.0203 0.56C79.5136 0.506666 79.967 0.433333 80.3803 0.339999ZM87.4759 5.38C88.6493 5.38 89.5693 5.72667 90.2359 6.42C90.9026 7.11333 91.2359 8.24667 91.2359 9.82H84.6559L84.6159 9.44H88.7159C88.7293 8.78667 88.6893 8.18667 88.5959 7.64C88.5026 7.08 88.3559 6.63333 88.1559 6.3C87.9559 5.96667 87.6893 5.8 87.3559 5.8C86.8893 5.8 86.4893 6.09333 86.1559 6.68C85.8359 7.26667 85.6426 8.24 85.5759 9.6L85.6359 9.72C85.6226 9.88 85.6093 10.0467 85.5959 10.22C85.5959 10.3933 85.5959 10.5733 85.5959 10.76C85.5959 11.68 85.7226 12.4267 85.9759 13C86.2426 13.5733 86.5759 13.9933 86.9759 14.26C87.3759 14.5133 87.7826 14.64 88.1959 14.64C88.4759 14.64 88.7626 14.6 89.0559 14.52C89.3626 14.4267 89.6693 14.2667 89.9759 14.04C90.2826 13.8 90.5693 13.4667 90.8359 13.04L91.1959 13.16C91.0359 13.6667 90.7826 14.16 90.4359 14.64C90.0893 15.12 89.6493 15.5133 89.1159 15.82C88.5826 16.1267 87.9426 16.28 87.1959 16.28C86.2893 16.28 85.4893 16.0867 84.7959 15.7C84.1026 15.3133 83.5559 14.7267 83.1559 13.94C82.7693 13.1533 82.5759 12.1533 82.5759 10.94C82.5759 9.7 82.7826 8.66667 83.1959 7.84C83.6226 7.01333 84.2026 6.4 84.9359 6C85.6826 5.58667 86.5293 5.38 87.4759 5.38ZM6.86 28.84V29.24C6.43333 29.2533 6.10667 29.3067 5.88 29.4C5.66667 29.48 5.52667 29.64 5.46 29.88C5.39333 30.1067 5.36 30.4667 5.36 30.96V40.88C5.36 41.36 5.39333 41.72 5.46 41.96C5.54 42.2 5.68667 42.36 5.9 42.44C6.11333 42.52 6.43333 42.5733 6.86 42.6V43C6.5 42.9733 6.04667 42.96 5.5 42.96C4.95333 42.9467 4.4 42.94 3.84 42.94C3.18667 42.94 2.58 42.9467 2.02 42.96C1.47333 42.96 1.02667 42.9733 0.68 43V42.6C1.10667 42.5733 1.42667 42.52 1.64 42.44C1.85333 42.36 1.99333 42.2 2.06 41.96C2.14 41.72 2.18 41.36 2.18 40.88V30.96C2.18 30.4667 2.14 30.1067 2.06 29.88C1.99333 29.64 1.84667 29.48 1.62 29.4C1.40667 29.3067 1.09333 29.2533 0.68 29.24V28.84C1.02667 28.8533 1.47333 28.8667 2.02 28.88C2.58 28.8933 3.18667 28.9 3.84 28.9C4.4 28.9 4.95333 28.8933 5.5 28.88C6.04667 28.8667 6.5 28.8533 6.86 28.84ZM11.8423 32.38C12.4023 32.38 12.889 32.4533 13.3023 32.6C13.729 32.7333 14.0357 32.8667 14.2223 33C14.6757 33.3067 14.9557 33.1067 15.0623 32.4H15.4823C15.4557 32.7733 15.4357 33.2333 15.4223 33.78C15.409 34.3133 15.4023 35.0267 15.4023 35.92H14.9823C14.9157 35.4267 14.789 34.94 14.6023 34.46C14.4157 33.98 14.1423 33.5867 13.7823 33.28C13.4357 32.9733 12.9823 32.82 12.4223 32.82C12.0357 32.82 11.709 32.9333 11.4423 33.16C11.1757 33.3733 11.0423 33.6867 11.0423 34.1C11.0423 34.5 11.1623 34.8533 11.4023 35.16C11.6423 35.4533 11.949 35.74 12.3223 36.02C12.709 36.2867 13.109 36.5733 13.5223 36.88C13.9623 37.2133 14.3623 37.5467 14.7223 37.88C15.0823 38.2 15.369 38.5533 15.5823 38.94C15.7957 39.3267 15.9023 39.7867 15.9023 40.32C15.9023 40.92 15.729 41.4467 15.3823 41.9C15.0357 42.34 14.5757 42.68 14.0023 42.92C13.4423 43.16 12.8157 43.28 12.1223 43.28C11.7223 43.28 11.3623 43.24 11.0423 43.16C10.7357 43.08 10.469 42.98 10.2423 42.86C10.069 42.78 9.90234 42.7067 9.74234 42.64C9.59568 42.56 9.45568 42.4933 9.32234 42.44C9.18901 42.4 9.06901 42.4467 8.96234 42.58C8.86901 42.7133 8.79568 42.9 8.74234 43.14H8.32234C8.34901 42.7133 8.36901 42.1933 8.38234 41.58C8.39568 40.9667 8.40234 40.1533 8.40234 39.14H8.82234C8.90234 39.86 9.04901 40.5 9.26234 41.06C9.47568 41.6067 9.76234 42.04 10.1223 42.36C10.4957 42.6667 10.9623 42.82 11.5223 42.82C11.749 42.82 11.969 42.7733 12.1823 42.68C12.3957 42.5867 12.569 42.4333 12.7023 42.22C12.849 42.0067 12.9223 41.7333 12.9223 41.4C12.9223 40.8133 12.729 40.3267 12.3423 39.94C11.969 39.5533 11.489 39.1333 10.9023 38.68C10.4757 38.3333 10.069 37.9933 9.68234 37.66C9.30901 37.3133 9.00234 36.94 8.76234 36.54C8.52234 36.1267 8.40234 35.66 8.40234 35.14C8.40234 34.54 8.56234 34.0333 8.88234 33.62C9.20234 33.2067 9.62234 32.9 10.1423 32.7C10.6757 32.4867 11.2423 32.38 11.8423 32.38ZM21.2006 27.34V41.14C21.2006 41.7 21.294 42.08 21.4806 42.28C21.6806 42.48 22.014 42.58 22.4806 42.58V43C22.2273 42.9867 21.8473 42.9733 21.3406 42.96C20.834 42.9333 20.3206 42.92 19.8006 42.92C19.2806 42.92 18.754 42.9333 18.2206 42.96C17.7006 42.9733 17.3073 42.9867 17.0406 43V42.58C17.5073 42.58 17.834 42.48 18.0206 42.28C18.2206 42.08 18.3206 41.7 18.3206 41.14V29.74C18.3206 29.14 18.2273 28.7 18.0406 28.42C17.8673 28.1267 17.534 27.98 17.0406 27.98V27.56C17.4673 27.6 17.8806 27.62 18.2806 27.62C18.8273 27.62 19.3473 27.6 19.8406 27.56C20.334 27.5067 20.7873 27.4333 21.2006 27.34ZM26.0916 43.14C25.4916 43.14 24.9916 43.0267 24.5916 42.8C24.1916 42.5733 23.8982 42.2733 23.7116 41.9C23.5249 41.5133 23.4316 41.0933 23.4316 40.64C23.4316 40.0667 23.5582 39.6 23.8116 39.24C24.0782 38.88 24.4182 38.5867 24.8316 38.36C25.2449 38.1333 25.6782 37.9467 26.1316 37.8C26.5982 37.6533 27.0382 37.5133 27.4516 37.38C27.8782 37.2333 28.2182 37.0667 28.4716 36.88C28.7382 36.68 28.8716 36.4267 28.8716 36.12V34.56C28.8716 34.2133 28.8116 33.9067 28.6916 33.64C28.5849 33.36 28.4116 33.1467 28.1716 33C27.9449 32.8533 27.6449 32.78 27.2716 32.78C27.0049 32.78 26.7382 32.82 26.4716 32.9C26.2049 32.9667 25.9849 33.0867 25.8116 33.26C26.1849 33.3933 26.4716 33.6 26.6716 33.88C26.8849 34.1467 26.9916 34.4533 26.9916 34.8C26.9916 35.2533 26.8316 35.6133 26.5116 35.88C26.2049 36.1467 25.8382 36.28 25.4116 36.28C24.9316 36.28 24.5649 36.1333 24.3116 35.84C24.0716 35.5333 23.9516 35.1667 23.9516 34.74C23.9516 34.3533 24.0449 34.0333 24.2316 33.78C24.4316 33.5267 24.7049 33.2867 25.0516 33.06C25.4249 32.8467 25.8716 32.68 26.3916 32.56C26.9249 32.44 27.4982 32.38 28.1116 32.38C28.7249 32.38 29.2782 32.4467 29.7716 32.58C30.2649 32.7 30.6782 32.9267 31.0116 33.26C31.3182 33.5667 31.5182 33.9467 31.6116 34.4C31.7049 34.84 31.7516 35.4 31.7516 36.08V41.52C31.7516 41.8533 31.7849 42.0867 31.8516 42.22C31.9182 42.34 32.0316 42.4 32.1916 42.4C32.3116 42.4 32.4249 42.3667 32.5316 42.3C32.6516 42.2333 32.7782 42.1533 32.9116 42.06L33.1116 42.4C32.8316 42.64 32.5049 42.8267 32.1316 42.96C31.7716 43.08 31.3649 43.14 30.9116 43.14C30.4182 43.14 30.0249 43.0733 29.7316 42.94C29.4382 42.7933 29.2249 42.6 29.0916 42.36C28.9716 42.12 28.9116 41.84 28.9116 41.52C28.5916 42.0267 28.2049 42.4267 27.7516 42.72C27.2982 43 26.7449 43.14 26.0916 43.14ZM27.5116 41.86C27.7782 41.86 28.0182 41.8 28.2316 41.68C28.4582 41.5467 28.6716 41.3333 28.8716 41.04V36.94C28.7516 37.14 28.5849 37.32 28.3716 37.48C28.1582 37.64 27.9316 37.8067 27.6916 37.98C27.4516 38.14 27.2182 38.32 26.9916 38.52C26.7782 38.72 26.6049 38.9667 26.4716 39.26C26.3382 39.5533 26.2716 39.9067 26.2716 40.32C26.2716 40.84 26.3849 41.2267 26.6116 41.48C26.8382 41.7333 27.1382 41.86 27.5116 41.86ZM41.1231 32.38C41.6831 32.38 42.1365 32.4533 42.4831 32.6C42.8431 32.7333 43.1231 32.92 43.3231 33.16C43.5365 33.4133 43.6898 33.74 43.7831 34.14C43.8898 34.54 43.9431 35.08 43.9431 35.76V41.14C43.9431 41.7 44.0365 42.08 44.2231 42.28C44.4231 42.48 44.7565 42.58 45.2231 42.58V43C44.9698 42.9867 44.5898 42.9733 44.0831 42.96C43.5765 42.9333 43.0765 42.92 42.5831 42.92C42.0765 42.92 41.5765 42.9333 41.0831 42.96C40.6031 42.9733 40.2365 42.9867 39.9831 43V42.58C40.3831 42.58 40.6631 42.48 40.8231 42.28C40.9831 42.08 41.0631 41.7 41.0631 41.14V34.92C41.0631 34.5867 41.0298 34.3 40.9631 34.06C40.8965 33.8067 40.7765 33.6133 40.6031 33.48C40.4298 33.3333 40.1698 33.26 39.8231 33.26C39.4631 33.26 39.1298 33.36 38.8231 33.56C38.5298 33.76 38.2898 34.04 38.1031 34.4C37.9298 34.7467 37.8431 35.14 37.8431 35.58V41.14C37.8431 41.7 37.9231 42.08 38.0831 42.28C38.2565 42.48 38.5365 42.58 38.9231 42.58V43C38.6831 42.9867 38.3298 42.9733 37.8631 42.96C37.4098 42.9333 36.9365 42.92 36.4431 42.92C35.9365 42.92 35.4165 42.9333 34.8831 42.96C34.3498 42.9733 33.9498 42.9867 33.6831 43V42.58C34.1498 42.58 34.4765 42.48 34.6631 42.28C34.8631 42.08 34.9631 41.7 34.9631 41.14V34.84C34.9631 34.24 34.8698 33.8 34.6831 33.52C34.5098 33.2267 34.1765 33.08 33.6831 33.08V32.66C34.1098 32.7 34.5231 32.72 34.9231 32.72C35.4831 32.72 36.0031 32.7 36.4831 32.66C36.9765 32.6067 37.4298 32.5333 37.8431 32.44V34.24C38.1765 33.56 38.6298 33.08 39.2031 32.8C39.7765 32.52 40.4165 32.38 41.1231 32.38ZM55.8083 27.34V40.8C55.8083 41.4 55.9016 41.8467 56.0883 42.14C56.2749 42.42 56.6083 42.56 57.0883 42.56V42.98C56.6749 42.94 56.2616 42.92 55.8483 42.92C55.2883 42.92 54.7616 42.94 54.2683 42.98C53.7883 43.02 53.3416 43.0933 52.9283 43.2V29.74C52.9283 29.14 52.8349 28.7 52.6483 28.42C52.4749 28.1267 52.1416 27.98 51.6483 27.98V27.56C52.0749 27.6 52.4883 27.62 52.8883 27.62C53.4349 27.62 53.9549 27.6 54.4483 27.56C54.9416 27.5067 55.3949 27.4333 55.8083 27.34ZM50.7083 32.38C51.2949 32.38 51.8083 32.48 52.2483 32.68C52.7016 32.8667 53.0549 33.1867 53.3083 33.64L53.0683 33.86C52.8949 33.54 52.6616 33.3133 52.3683 33.18C52.0883 33.0333 51.7883 32.96 51.4683 32.96C50.7883 32.96 50.2483 33.36 49.8483 34.16C49.4483 34.9467 49.2549 36.1667 49.2683 37.82C49.2683 38.9533 49.3416 39.86 49.4883 40.54C49.6483 41.2067 49.8683 41.6867 50.1483 41.98C50.4416 42.2733 50.7749 42.42 51.1483 42.42C51.6016 42.42 52.0083 42.24 52.3683 41.88C52.7283 41.52 52.9216 41.0333 52.9483 40.42L53.0483 41.12C52.8483 41.8267 52.5216 42.3667 52.0683 42.74C51.6283 43.1 51.0483 43.28 50.3283 43.28C49.5416 43.28 48.8349 43.0867 48.2083 42.7C47.5949 42.3133 47.1149 41.72 46.7683 40.92C46.4216 40.1067 46.2483 39.06 46.2483 37.78C46.2483 36.5667 46.4416 35.5667 46.8283 34.78C47.2149 33.98 47.7416 33.38 48.4083 32.98C49.0883 32.58 49.8549 32.38 50.7083 32.38Z" fill="#0E204E"/>
</svg>
